<?xml version="1.0" encoding="UTF-8"?>
<svg width="31px" height="30px" viewBox="0 0 31 30" version="1.1" xmlns="http://www.w3.org/2000/svg" xmlns:xlink="http://www.w3.org/1999/xlink">
    <title>bilibili</title>
    <g stroke="none" stroke-width="1" fill="none" fill-rule="evenodd">
        <g id="bilibili" fill="#000000" fill-rule="nonzero">
            <path d="M12.3542351,12.0852858 L6.15108721,13.2987133 L6.6822776,15.6772847 L12.8229015,14.4639169 L12.3542351,12.0852858 L12.3542351,12.0852858 Z M15.6978919,18.3909738 C14.1822856,21.7113767 12.82296,19.2051642 12.82296,19.2051642 L11.8074869,19.8757583 C11.8074869,19.8757583 13.807259,22.6694622 15.7136253,20.5461732 C17.9636687,22.6694622 19.6823462,19.8598032 19.6823462,19.8598032 L18.7603958,19.2531491 C18.7604543,19.2371343 17.1510913,21.6157056 15.6978919,18.3909738 Z M18.7604542,14.4637974 L24.9166945,15.6771651 L25.4322685,13.2985938 L19.244854,12.0851662 L18.7604542,14.4637974 L18.7604542,14.4637974 Z M30.9839157,9.79330243 C30.8859479,5.3624932 27.1034536,4.5128071 27.1034536,4.5128071 C27.1034536,4.5128071 24.1523115,4.49619464 20.3207455,4.46279041 L23.1088809,1.71426288 C23.1088809,1.71426288 23.5490636,1.14782537 22.7990686,0.514997779 C22.0489567,-0.117949345 22.0000605,0.165179759 21.7393198,0.331842281 C21.5109817,0.49832555 18.168553,3.84657528 17.5816818,4.4463572 C16.0654907,4.4463572 14.4838511,4.42956544 12.9512833,4.42956544 L13.4893168,4.42956544 C13.4893168,4.42956544 9.49480257,0.398351891 9.23388642,0.215196446 C8.97297028,0.0319811792 8.94039233,-0.234415927 8.17407917,0.398351944 C7.42408423,1.03135884 7.86426685,1.59767681 7.86426685,1.59767681 L10.7174996,4.42956544 C7.61972743,4.42956544 4.94564417,4.4463572 3.70662884,4.49619464 C-0.304320597,5.67902653 0.00555022278,9.79342197 0.00555022278,9.79342197 C0.00555022278,9.79342197 0.0543878972,18.6222338 0.00555022278,23.0866264 C0.445732892,27.5510192 3.80442119,28.2670884 3.80442124,28.2670884 C3.80442129,28.2670884 5.14134587,28.3004329 6.13605572,28.3004329 C6.23373112,28.5836217 6.31526375,29.9828938 7.84800712,29.9828939 C9.36425677,29.9828939 9.55984152,28.3004329 9.55984152,28.3004329 C9.55984152,28.3004328 20.7284088,28.2505357 21.6576702,28.2505357 C21.7066834,28.7335523 21.934963,30.0162383 23.4675309,29.9998443 C24.9837221,29.9662814 25.0978327,28.1506816 25.0978327,28.1506816 C25.0978327,28.1506816 25.6196649,28.1006649 27.1684926,28.1506816 C30.7881555,27.4675982 31,23.1365834 31,23.1365834 C31,23.1365835 30.934961,14.2243507 30.9839157,9.79330243 L30.9839157,9.79330243 Z M27.8697668,23.9195208 C27.8697668,24.6190971 27.3316748,25.1854151 26.6632125,25.1854151 L4.65250102,25.1854151 C3.98403871,25.1854151 3.44600519,24.6190971 3.44600519,23.9195208 L3.44600519,9.0104845 C3.44600519,8.31078869 3.98409721,7.74441094 4.65250102,7.74441094 L26.6632125,7.74441094 C27.3316748,7.74441094 27.8697668,8.31078869 27.8697668,9.0104845 L27.8697668,23.9195208 L27.8697668,23.9195208 Z" id="形状"></path>
        </g>
    </g>
</svg>