<?xml version="1.0" encoding="UTF-8"?>
<svg width="31px" height="30px" viewBox="0 0 31 30" version="1.1" xmlns="http://www.w3.org/2000/svg" xmlns:xlink="http://www.w3.org/1999/xlink">
    <title>github</title>
    <g stroke="none" stroke-width="1" fill="none" fill-rule="evenodd">
        <g id="github" transform="translate(0.3333, 0)" fill="#000000" fill-rule="nonzero">
            <path d="M15.3333333,0 C6.86133333,0 0,6.86133333 0,15.3333333 C0,22.1186667 4.38933333,27.8493333 10.484,29.88 C11.2506667,30.0146667 11.5373333,29.5546667 11.5373333,29.152 C11.5373333,28.788 11.5186667,27.5813333 11.5186667,26.296 C7.66666667,27.0053333 6.67066667,25.3573333 6.364,24.496 C6.19066667,24.0546667 5.444,22.6933333 4.79066667,22.3293333 C4.25466667,22.0413333 3.488,21.332 4.772,21.3133333 C5.98,21.2946667 6.84266667,22.4253333 7.13066667,22.8853333 C8.51066667,25.2053333 10.7146667,24.552 11.596,24.1493333 C11.7293333,23.1533333 12.132,22.4826667 12.5733333,22.0986667 C9.16133333,21.716 5.59733333,20.3933333 5.59733333,14.528 C5.59733333,12.8613333 6.19066667,11.4813333 7.168,10.408 C7.01466667,10.024 6.47866667,8.452 7.32133333,6.344 C7.32133333,6.344 8.60533333,5.94133333 11.5386667,7.916 C12.7653333,7.57066667 14.068,7.39866667 15.372,7.39866667 C16.6746667,7.39866667 17.9786667,7.572 19.2053333,7.916 C22.1386667,5.92266667 23.4213333,6.344 23.4213333,6.344 C24.2653333,8.452 23.728,10.024 23.5746667,10.408 C24.552,11.4813333 25.1466667,12.8413333 25.1466667,14.528 C25.1466667,20.412 21.5626667,21.7146667 18.1506667,22.0986667 C18.7066667,22.5786667 19.1853333,23.4986667 19.1853333,24.936 C19.1853333,26.9866667 19.1666667,28.6346667 19.1666667,29.152 C19.1666667,29.5546667 19.4546667,30.0346667 20.22,29.8813333 C26.2786667,27.8493333 30.6666667,22.0986667 30.6666667,15.3333333 C30.6666667,6.86133333 23.8053333,0 15.3333333,0 Z" id="路径"></path>
        </g>
    </g>
</svg>