<?xml version="1.0" encoding="UTF-8"?>
<svg width="924px" height="924px" viewBox="0 0 924 924" version="1.1" xmlns="http://www.w3.org/2000/svg" xmlns:xlink="http://www.w3.org/1999/xlink">
    <title>netease-music-seeklogo</title>
    <g id="页面-1" stroke="none" stroke-width="1" fill="none" fill-rule="evenodd">
        <g id="netease-music-seeklogo" fill="#000000" fill-rule="nonzero">
            <g id="编组">
                <path d="M173.723077,0 L750.984615,0 C788.923077,1.63076923 826.246154,15.6 855.723077,39.5384615 C896.246154,71.6307692 921.723077,122 923.076923,173.753846 L923.076923,751.476923 C921.538462,841.384615 841.630769,921.415385 751.723077,923.076923 L170.461538,923.076923 C119.938462,920.523077 71.0153846,895.507692 39.6,855.815385 C15.7538462,826.523077 1.81538462,789.476923 0,751.784615 L0,170.338462 C2.09230769,133.076923 15.9076923,96.4923077 39.4461538,67.4769231 C71.5384615,26.8615385 121.938462,1.41538462 173.723077,0 M457.753846,205.969231 C455.907692,232.676923 467.292308,257.661538 473.138462,283.2 C426.553846,296.276923 383.261538,325.323077 358.338462,367.384615 C339.630769,398.092308 332.153846,434.830769 334.892308,470.492308 C336.215385,508.092308 351.938462,545.415385 379.353846,571.415385 C407.815385,599.384615 449.969231,613.046154 489.353846,606.184615 C530.984615,600.338462 568.769231,573.230769 588.123077,535.969231 C606.246154,502.892308 605.876923,463.015385 596.492308,427.353846 C589.723077,403.230769 582.584615,379.2 574.8,355.384615 C607.907692,363.107692 635.723077,384.984615 658,409.815385 C690.030769,446.369231 702.8,497.292308 695.476923,544.953846 C690.4,589.107692 667.076923,629.6 635.846154,660.523077 C592.430769,703.046154 530.984615,724.092308 470.830769,724.276923 C418.4,725.753846 366.061538,707.630769 324.553846,675.815385 C272.492308,636.184615 236.953846,575.6 227.938462,510.8 C220.830769,461.507692 228.646154,410.061538 251.107692,365.507692 C278.369231,309.969231 326.984615,265.292308 384.738462,243.046154 C396.030769,239.169231 406.830769,232.307692 412.738462,221.630769 C423.661538,204.769231 416.307692,179.815385 398.738462,170.615385 C387.476923,164.215385 373.476923,164.061538 361.353846,168.061538 C291.046154,193.815385 230.4,244.646154 192.215385,309.015385 C158.953846,364.646154 142.4,430.461538 146.953846,495.230769 C152.123077,587.846154 198.984615,676.953846 271.784615,734.338462 C326.153846,777.723077 395.169231,802.707692 464.830769,802.707692 C539.046154,803.384615 614.461538,780.338462 672.246154,733.015385 C723.2,691.230769 760.676923,631.938462 772.646154,566.830769 C781.107692,516.707692 776.615385,463.723077 755.353846,417.2 C733.107692,367.107692 692.707692,326.523077 645.507692,299.384615 C617.169231,283.846154 584.984615,275.6 552.769231,274.215385 C548.4,257.753846 542.892308,241.569231 540,224.769231 C537.138462,208.061538 545.415385,188 563.2,183.876923 C583.538462,179.507692 603.446154,190.369231 619.046154,202.492308 C635.846154,215.569231 664.8,216.553846 677.876923,197.753846 C689.230769,179.169231 683.107692,152.8 666.153846,139.6 C640.769231,118.738462 608.4,105.538462 575.415385,104.676923 C518.492308,101.784615 461.876923,148.307692 457.753846,205.969231 L457.753846,205.969231 Z" id="形状"></path>
                <path d="M417.569231,427.076923 C427.630769,391.969231 460.215385,368.830769 493.661538,358.369231 C503.753846,389.753846 513.630769,421.230769 522.215385,453.046154 C525.692308,469.846154 525.507692,488.584615 515.876923,503.446154 C500.492308,530.030769 460,538.646154 436.707692,517.446154 C411.753846,495.323077 409.015385,457.476923 417.569231,427.076923 Z" id="路径"></path>
            </g>
        </g>
    </g>
</svg>